<svg xmlns="http://www.w3.org/2000/svg" viewBox="0 0 1600 900" role="img" aria-labelledby="title desc">
  <title id="title">Project screenshot placeholder</title>
  <desc id="desc">Abstract interface illustration with panels, cards, and data blocks.</desc>
  <rect width="1600" height="900" fill="#ECE8E1" />
  <rect x="118" y="118" width="1364" height="664" rx="28" fill="#F7F5EF" stroke="#E2DFD8" stroke-width="4" />
  <rect x="170" y="168" width="1260" height="84" rx="16" fill="#F2F0EB" stroke="#E2DFD8" stroke-width="3" />
  <circle cx="220" cy="210" r="13" fill="#ABA99F" />
  <circle cx="260" cy="210" r="13" fill="#ABA99F" />
  <circle cx="300" cy="210" r="13" fill="#7A9E7E" />
  <rect x="170" y="292" width="290" height="420" rx="18" fill="#F2F0EB" stroke="#E2DFD8" stroke-width="3" />
  <rect x="508" y="292" width="420" height="190" rx="18" fill="#F2F0EB" stroke="#E2DFD8" stroke-width="3" />
  <rect x="966" y="292" width="464" height="190" rx="18" fill="#DBE2D7" stroke="#E2DFD8" stroke-width="3" />
  <rect x="508" y="522" width="420" height="190" rx="18" fill="#F2F0EB" stroke="#E2DFD8" stroke-width="3" />
  <rect x="966" y="522" width="464" height="190" rx="18" fill="#F2F0EB" stroke="#E2DFD8" stroke-width="3" />
  <rect x="210" y="344" width="210" height="18" rx="9" fill="#D6D3CB" />
  <rect x="210" y="392" width="170" height="18" rx="9" fill="#D6D3CB" />
  <rect x="210" y="440" width="190" height="18" rx="9" fill="#D6D3CB" />
  <rect x="558" y="344" width="150" height="18" rx="9" fill="#D6D3CB" />
  <rect x="558" y="390" width="310" height="18" rx="9" fill="#D6D3CB" />
  <rect x="558" y="570" width="210" height="18" rx="9" fill="#D6D3CB" />
  <rect x="558" y="616" width="280" height="18" rx="9" fill="#D6D3CB" />
  <rect x="1008" y="346" width="118" height="18" rx="9" fill="#5A7A5E" />
  <rect x="1008" y="394" width="300" height="18" rx="9" fill="#B7C8B2" />
  <rect x="1008" y="570" width="196" height="18" rx="9" fill="#D6D3CB" />
  <rect x="1008" y="616" width="250" height="18" rx="9" fill="#D6D3CB" />
</svg>
