<svg xmlns="http://www.w3.org/2000/svg" viewBox="0 0 1600 900" role="img" aria-labelledby="title desc">
  <title id="title">Project screenshot placeholder</title>
  <desc id="desc">Abstract interface illustration with panels, cards, and data blocks.</desc>
  <rect width="1600" height="900" fill="#171914" />
  <rect x="118" y="118" width="1364" height="664" rx="28" fill="#1D1F1B" stroke="#32362F" stroke-width="4" />
  <rect x="170" y="168" width="1260" height="84" rx="16" fill="#242722" stroke="#32362F" stroke-width="3" />
  <circle cx="220" cy="210" r="13" fill="#8E877A" />
  <circle cx="260" cy="210" r="13" fill="#8E877A" />
  <circle cx="300" cy="210" r="13" fill="#89A88C" />
  <rect x="170" y="292" width="290" height="420" rx="18" fill="#242722" stroke="#32362F" stroke-width="3" />
  <rect x="508" y="292" width="420" height="190" rx="18" fill="#242722" stroke="#32362F" stroke-width="3" />
  <rect x="966" y="292" width="464" height="190" rx="18" fill="#293127" stroke="#32362F" stroke-width="3" />
  <rect x="508" y="522" width="420" height="190" rx="18" fill="#242722" stroke="#32362F" stroke-width="3" />
  <rect x="966" y="522" width="464" height="190" rx="18" fill="#242722" stroke="#32362F" stroke-width="3" />
  <rect x="210" y="344" width="210" height="18" rx="9" fill="#4C4F49" />
  <rect x="210" y="392" width="170" height="18" rx="9" fill="#4C4F49" />
  <rect x="210" y="440" width="190" height="18" rx="9" fill="#4C4F49" />
  <rect x="558" y="344" width="150" height="18" rx="9" fill="#4C4F49" />
  <rect x="558" y="390" width="310" height="18" rx="9" fill="#4C4F49" />
  <rect x="558" y="570" width="210" height="18" rx="9" fill="#4C4F49" />
  <rect x="558" y="616" width="280" height="18" rx="9" fill="#4C4F49" />
  <rect x="1008" y="346" width="118" height="18" rx="9" fill="#89A88C" />
  <rect x="1008" y="394" width="300" height="18" rx="9" fill="#5A6758" />
  <rect x="1008" y="570" width="196" height="18" rx="9" fill="#4C4F49" />
  <rect x="1008" y="616" width="250" height="18" rx="9" fill="#4C4F49" />
</svg>
